<?xml version="1.0" standalone="no"?>
<!DOCTYPE svg PUBLIC "-//W3C//DTD SVG 20010904//EN"
 "http://www.w3.org/TR/2001/REC-SVG-20010904/DTD/svg10.dtd">
<svg version="1.0" xmlns="http://www.w3.org/2000/svg"
 width="433.000000pt" height="433.000000pt" viewBox="0 0 433.000000 433.000000"
 preserveAspectRatio="xMidYMid meet">
<metadata>
Created by potrace 1.11, written by Peter Selinger 2001-2013
</metadata>
<g transform="translate(0.000000,433.000000) scale(0.100000,-0.100000)"
fill="#000000" stroke="none">
<path d="M0 2217 c0 -1630 3 -2116 12 -2125 9 -9 9 -12 0 -12 -7 0 -12 -16
-12 -40 0 -37 2 -40 29 -40 16 0 34 7 41 15 7 8 17 15 23 15 6 0 2 -7 -9 -15
-17 -13 -6 -15 106 -12 l125 2 3 42 c2 33 9 47 32 63 34 24 50 26 50 5 0 -11
8 -15 28 -13 21 2 28 -2 30 -19 2 -13 -4 -33 -12 -45 -9 -12 -16 -26 -16 -30
0 -5 29 -8 65 -8 37 0 65 4 65 10 0 6 -21 10 -46 10 -32 0 -44 4 -42 13 6 15
88 23 88 8 0 -6 8 -11 18 -11 16 1 16 1 0 14 -11 8 -18 26 -18 45 l0 32 25
-18 c17 -13 24 -28 25 -50 0 -33 15 -52 23 -31 3 8 6 6 6 -4 1 -28 21 -21 21
7 0 14 6 25 13 25 9 0 8 3 -2 9 -11 7 -11 9 0 14 8 3 4 6 -9 6 -12 1 -25 8
-29 16 -9 24 5 30 25 12 10 -10 24 -17 31 -17 7 0 9 -4 6 -10 -3 -5 1 -10 9
-10 9 0 16 -4 16 -10 0 -5 7 -10 15 -10 23 0 18 17 -11 37 -14 10 -49 39 -77
65 -29 26 -60 48 -70 48 -10 0 -16 -4 -13 -8 3 -5 -25 -9 -62 -10 -63 0 -64 0
-27 9 109 25 122 24 165 -15 33 -30 123 -91 237 -162 12 -8 45 -14 73 -14 l52
0 -68 36 c-100 53 -211 130 -260 181 -40 43 -42 46 -26 62 54 55 224 143 301
156 44 7 44 7 38 -21 -4 -22 2 -34 32 -62 84 -80 381 -201 706 -287 249 -67
228 -65 731 -65 434 0 462 1 477 18 10 10 17 33 17 50 0 18 2 32 4 32 9 0 146
-82 152 -91 3 -5 24 -9 47 -9 l42 0 -30 25 c-16 13 -36 24 -42 25 -7 0 -13 5
-13 11 0 7 9 9 23 5 12 -3 50 -9 85 -13 34 -3 62 -10 62 -15 0 -5 -20 -6 -46
-2 -44 6 -46 6 -35 -14 9 -17 21 -20 91 -21 49 -1 80 3 80 9 0 6 -16 10 -35 8
-19 -1 -38 2 -42 6 -10 11 161 -2 194 -15 14 -5 202 -9 434 -9 l409 0 0 2165
0 2165 -194 0 c-163 0 -195 -2 -200 -15 -3 -8 -11 -15 -18 -15 -16 -1 -51 -47
-44 -59 8 -12 -21 -34 -34 -26 -6 3 -10 -3 -10 -14 0 -12 5 -21 10 -21 16 0
12 -32 -7 -53 -13 -14 -14 -21 -6 -24 10 -3 10 -9 0 -24 -9 -15 -9 -23 1 -39
11 -18 10 -20 -15 -21 -16 0 -22 -3 -15 -6 6 -2 10 -9 7 -13 -3 -5 4 -18 16
-29 21 -20 21 -22 5 -39 -18 -21 -12 -52 10 -52 16 0 19 -16 4 -25 -5 -3 -10
-21 -10 -38 0 -20 3 -27 8 -20 7 10 12 10 27 -1 17 -12 15 -14 -18 -20 -40 -8
-49 -25 -17 -33 11 -3 20 -14 20 -24 0 -11 0 -22 0 -26 0 -5 -4 -8 -9 -8 -20
0 -23 -15 -8 -38 9 -14 12 -29 7 -37 -4 -7 -6 -19 -3 -26 6 -16 10 -17 -227
65 -163 57 -230 72 -230 53 0 -4 -26 -20 -59 -35 -89 -41 -209 -48 -304 -17
-71 24 -128 56 -177 102 -14 13 -35 28 -46 33 -25 11 -124 127 -124 145 0 6
-11 31 -25 56 -14 25 -25 54 -25 64 0 11 -4 28 -9 38 -14 25 -23 71 -26 127
-2 28 -6 65 -10 83 l-7 32 -1284 0 -1284 0 0 -2113z m2141 1544 c35 -1 99 -45
99 -68 0 -5 9 -18 20 -28 12 -11 17 -22 12 -27 -9 -9 -113 0 -272 23 -41 5
-109 14 -150 18 -73 8 -61 13 36 15 30 0 40 4 37 13 -4 9 6 13 33 14 38 1 38
1 9 8 -16 4 -56 6 -89 6 -33 -1 -50 2 -40 6 37 14 140 26 204 23 36 -1 81 -2
101 -3z m-451 -131 c0 -5 -8 -10 -17 -10 -15 0 -16 2 -3 10 19 12 20 12 20 0z
m281 -8 c47 -5 90 -11 96 -15 14 -9 214 -10 236 -2 9 4 17 13 17 21 0 8 4 14
8 14 11 0 72 -75 72 -88 0 -5 -12 -18 -27 -28 -49 -32 -291 -20 -396 18 -15 6
-83 16 -151 22 -69 6 -128 15 -133 19 -4 5 -3 8 2 7 32 -7 65 1 65 16 0 11 -6
14 -20 9 -22 -7 -28 10 -7 19 13 5 99 1 238 -12z m-316 -42 c-3 -5 -14 -10
-23 -10 -15 0 -15 2 -2 10 20 13 33 13 25 0z m285 -78 c224 -52 400 -52 469
-1 26 19 29 19 75 4 76 -26 220 -105 291 -160 66 -51 76 -65 50 -65 -8 0 -15
-3 -15 -8 0 -4 -11 -19 -25 -34 l-25 -27 25 -53 c14 -29 25 -65 25 -79 0 -14
3 -29 8 -33 4 -4 7 -11 7 -14 1 -4 7 -17 14 -30 12 -22 18 -23 79 -20 l66 3
17 -47 c9 -27 13 -48 8 -48 -5 0 -11 0 -14 0 -26 0 -105 -112 -105 -147 0 -11
-5 -24 -11 -30 -12 -12 -19 -61 -11 -81 4 -11 6 -11 14 0 5 8 7 0 3 -22 -5
-28 0 -46 29 -92 35 -58 35 -58 11 -58 -27 0 -129 -25 -147 -36 -8 -5 -9 -2
-4 12 5 10 11 27 13 37 6 18 23 24 23 7 0 -5 7 -10 15 -10 8 0 15 7 15 15 0
18 14 19 40 3 28 -18 33 -5 12 33 -11 20 -26 33 -35 31 -10 -2 -17 7 -20 25
-4 25 -4 24 -6 -7 -2 -29 -4 -32 -11 -15 -7 17 -9 15 -9 -12 -2 -64 -16 -32
-18 40 -5 142 -83 239 -226 277 -92 25 -216 -7 -286 -73 -53 -50 -103 -134
-95 -159 4 -13 2 -18 -4 -14 -15 9 -25 -73 -13 -109 9 -27 10 -25 9 22 -3 84
9 71 14 -15 4 -65 10 -87 33 -123 38 -60 74 -87 140 -104 64 -17 201 -20 210
-5 3 6 13 10 22 10 10 0 0 -17 -29 -48 -89 -94 -131 -162 -226 -357 -83 -170
-92 -193 -86 -210 4 -8 1 -15 -5 -15 -6 0 -11 -9 -11 -20 0 -11 -4 -20 -10
-20 -5 0 -10 5 -10 10 0 6 -6 9 -12 8 -7 -2 -12 3 -10 10 3 15 -14 16 -24 0
-4 -7 5 -22 24 -38 32 -27 40 -40 23 -40 -5 0 -49 31 -98 69 -83 66 -164 148
-225 231 -26 35 -27 39 -11 51 9 8 18 10 20 4 8 -23 22 -39 29 -32 4 4 2 13
-4 19 -16 16 -15 28 2 28 10 0 12 7 8 22 l-5 22 -10 -22 c-6 -12 -14 -22 -19
-22 -11 0 -10 33 1 45 4 6 17 57 27 115 24 130 27 484 6 595 -28 144 -118 373
-169 430 -10 11 -31 37 -46 57 -15 21 -49 52 -75 70 -26 17 -49 35 -52 38 -3
4 -24 15 -47 25 -24 11 -43 22 -43 27 0 14 18 9 86 -23 36 -17 68 -28 71 -25
4 3 1 6 -5 6 -18 0 -52 32 -53 50 0 10 -2 11 -6 3 -6 -17 -28 -16 -43 2 -6 8
-15 14 -18 13 -23 -3 -42 3 -37 12 3 6 -3 10 -14 10 -25 0 -28 -15 -5 -24 9
-4 14 -9 11 -12 -3 -3 -36 2 -74 11 -37 10 -84 17 -103 17 -26 -1 -31 1 -19 8
10 6 38 6 74 0 61 -10 85 -2 85 27 0 11 8 14 30 11 19 -3 30 0 30 8 0 13 35
27 65 25 15 -2 17 0 6 7 -17 12 3 26 24 18 22 -8 45 4 39 19 -10 25 173 23
286 -3z m-314 11 c-12 -12 -72 -29 -86 -25 -9 3 -1 10 20 18 38 14 77 18 66 7z
m-106 -27 c0 -9 -59 -34 -65 -28 -5 5 25 20 63 31 1 1 2 -1 2 -3z m-90 -41 c0
-2 -18 -13 -40 -24 -22 -10 -40 -16 -40 -12 0 4 15 14 33 23 36 17 47 20 47
13z m-99 -132 c1 -10 1 -21 0 -25 -1 -11 41 -10 57 1 10 6 4 10 -18 14 -17 4
-29 11 -25 17 15 24 171 -34 255 -96 32 -24 77 -67 99 -96 23 -29 47 -60 54
-68 8 -8 27 -48 42 -88 16 -40 32 -75 37 -78 4 -3 8 -18 8 -33 0 -16 7 -42 15
-57 8 -16 15 -36 15 -46 0 -9 4 -18 9 -20 11 -4 31 -160 22 -168 -10 -9 -7
-108 4 -107 6 1 11 -36 13 -90 3 -91 2 -93 -20 -94 -16 -1 -18 -3 -6 -6 11 -3
17 -15 16 -36 0 -54 -6 -65 -33 -59 -26 5 -32 16 -15 27 6 3 10 17 10 31 0 38
-16 20 -24 -25 -6 -43 2 -103 14 -96 4 2 5 16 2 30 -2 15 0 25 7 25 8 0 11
-19 8 -60 -5 -62 -17 -96 -17 -46 0 21 -4 27 -15 22 -11 -4 -15 2 -15 24 0 17
-4 30 -9 30 -15 0 -23 -18 -12 -25 6 -3 8 -12 5 -19 -3 -8 -1 -17 5 -21 6 -3
11 -18 12 -33 0 -24 1 -25 9 -7 7 15 8 10 8 -22 -1 -24 -4 -43 -8 -43 -4 0
-17 30 -29 68 -19 62 -26 98 -51 257 -6 33 -19 89 -30 125 -11 36 -20 73 -20
83 0 11 -6 31 -14 45 -7 15 -27 56 -45 92 -53 110 -62 122 -157 210 -126 117
-144 125 -274 124 -104 -1 -240 -30 -255 -54 -3 -6 -11 -10 -16 -10 -21 0 4
21 41 36 25 10 44 26 52 45 10 23 19 29 45 29 18 0 33 -4 33 -10 0 -11 52 -13
88 -4 28 8 29 24 1 24 -11 0 -17 -4 -14 -10 9 -14 -8 -12 -41 5 -31 16 -23 22
33 27 26 2 31 6 23 18 -7 11 -14 12 -27 4 -17 -10 -101 -10 -111 1 -3 2 0 11
6 18 7 8 8 18 4 22 -4 5 -2 6 3 2 6 -3 17 -1 25 4 13 8 13 10 0 18 -8 6 -11
13 -7 18 5 4 11 2 15 -4 5 -7 18 -10 31 -6 19 5 22 11 19 41 l-3 36 60 -1 c33
0 48 1 32 4 -15 2 -25 9 -22 14 4 5 -1 9 -10 9 -9 0 -13 5 -10 10 4 6 11 8 16
5 5 -4 9 -1 9 4 0 6 9 11 20 11 11 0 20 5 20 10 0 6 7 10 16 10 14 0 14 3 4
15 -10 13 -9 15 9 15 13 0 21 -7 22 -17z m1613 -44 c45 -35 109 -170 87 -183
-4 -3 -34 -8 -67 -11 l-61 -7 -6 30 c-3 17 -18 54 -32 83 -14 29 -25 56 -25
60 0 7 60 49 71 49 4 0 18 -9 33 -21z m-1824 -29 c-6 -11 -16 -20 -22 -20 -6
0 -3 9 7 20 10 11 20 20 22 20 2 0 -1 -9 -7 -20z m1745 -125 l21 -60 77 -3
c42 -2 77 -7 77 -11 0 -4 -28 -11 -61 -15 -113 -11 -105 -16 -133 78 -41 133
-26 141 19 11z m-1745 -65 c0 -5 -13 -10 -30 -10 -16 0 -30 5 -30 10 0 6 14
10 30 10 17 0 30 -4 30 -10z m110 -163 c74 -26 156 -82 192 -130 23 -29 68
-113 114 -211 11 -22 18 -46 16 -54 -2 -8 1 -18 6 -21 6 -3 13 -20 16 -36 3
-17 3 -24 0 -17 -3 6 -13 12 -22 12 -13 0 -14 -2 -4 -9 16 -10 35 -152 25
-189 -4 -16 -2 -23 4 -19 9 6 16 -12 29 -68 1 -5 3 -12 4 -15 1 -3 3 -23 4
-46 2 -51 27 -109 85 -199 118 -182 231 -292 361 -352 127 -58 389 -92 497
-63 65 17 134 39 158 49 11 5 43 17 70 26 28 10 59 21 70 25 11 5 29 10 40 13
11 3 55 14 98 26 43 12 82 19 87 16 4 -3 10 0 12 6 4 12 120 42 253 64 90 15
316 20 374 9 35 -7 42 -24 10 -24 -11 0 -28 -7 -37 -16 -18 -19 -24 -57 -8
-51 6 3 10 10 8 16 -1 6 2 11 7 11 12 0 35 -86 26 -99 -3 -6 -1 -11 4 -11 6 0
11 -4 11 -10 0 -5 -7 -10 -15 -10 -8 0 -15 -4 -15 -10 0 -5 6 -10 14 -10 13 0
13 -7 7 -77 -1 -7 -8 -10 -16 -7 -8 4 -17 -1 -21 -10 -3 -9 -10 -13 -15 -10
-17 10 -31 -7 -18 -22 13 -16 5 -28 -19 -30 -51 -3 -50 -3 -47 -46 2 -24 4
-49 4 -56 1 -7 12 -17 26 -22 19 -7 25 -17 25 -40 0 -20 5 -30 15 -30 11 0 15
-12 15 -50 0 -30 -4 -50 -11 -50 -7 0 -9 10 -6 25 3 18 -1 29 -15 36 -24 13
-44 -1 -50 -36 -6 -27 24 -54 53 -50 22 4 20 -27 -2 -32 -17 -5 -18 -25 -5
-94 5 -22 -34 -40 -58 -27 -11 6 -15 16 -10 30 5 16 3 20 -10 15 -8 -3 -18 -2
-21 3 -4 6 -1 10 4 10 6 0 11 9 11 19 0 11 6 21 13 24 22 8 3 15 -62 22 -46 5
-62 4 -57 -4 11 -17 -70 -14 -88 4 -8 8 -22 15 -30 15 -9 0 -16 5 -16 11 0 6
-21 9 -52 7 l-53 -3 4 -55 c1 -30 7 -56 12 -58 5 -2 9 -12 9 -23 0 -14 7 -19
25 -19 18 0 25 -5 25 -19 0 -21 -63 -42 -111 -36 -19 3 -32 -1 -38 -12 -8 -15
-13 -15 -52 -2 -24 7 -48 12 -54 11 -5 -2 -25 -5 -44 -5 -47 -3 -54 -27 -7
-27 44 0 66 -29 35 -48 -22 -14 -59 -16 -59 -2 0 5 -16 12 -35 16 -25 4 -35
11 -35 25 0 11 -4 19 -9 19 -15 0 -22 -32 -10 -46 6 -7 9 -23 7 -36 -3 -21
-10 -24 -68 -29 -36 -4 -66 -3 -68 2 -2 5 -8 9 -14 9 -6 0 -8 -7 -5 -14 4 -10
1 -13 -8 -10 -7 3 -15 14 -18 25 -8 28 -106 28 -127 -1 -19 -26 -50 -26 -50
-1 0 11 -6 21 -12 23 -7 3 -19 27 -25 54 l-13 49 5 -54 c3 -42 1 -59 -12 -73
-12 -14 -13 -18 -3 -18 11 0 11 -3 2 -12 -8 -8 -15 -8 -27 2 -10 8 -15 9 -15
1 0 -6 -12 -12 -27 -13 -16 -1 4 -4 42 -8 l70 -6 -62 -2 c-88 -3 -92 -22 -4
-22 46 0 71 4 74 13 4 9 8 9 15 -2 6 -9 12 -10 16 -3 4 6 -6 18 -21 26 -19 10
-22 15 -11 16 28 0 48 -11 48 -29 0 -13 10 -16 50 -16 28 0 50 4 50 9 0 4 7 5
16 2 9 -4 32 -4 51 0 28 5 32 9 21 21 -10 13 -6 14 28 7 43 -9 40 -9 139 6 84
12 107 16 160 27 22 4 61 8 88 8 45 0 53 6 48 38 0 4 3 7 9 7 5 0 10 -13 10
-29 0 -29 -1 -29 -72 -35 -40 -3 -107 -10 -148 -16 -41 -6 -86 -11 -99 -10
-13 0 -29 -4 -35 -9 -6 -4 -33 -11 -61 -15 -27 -4 -75 -11 -105 -16 -30 -5
-93 -9 -140 -9 -47 -1 -114 -6 -149 -12 -35 -5 -71 -7 -80 -3 -9 4 -52 8 -96
9 -137 3 -165 5 -165 13 0 5 61 6 135 4 153 -5 188 11 48 22 -60 4 -92 11 -99
21 -13 17 -60 20 -70 4 -4 -8 -9 -7 -15 2 -7 11 -9 10 -9 -3 0 -13 -8 -18 -27
-17 -25 0 -26 1 -8 9 16 7 17 9 3 9 -9 1 -18 7 -21 14 -4 9 -7 9 -18 0 -18
-17 -37 -16 -56 3 -10 10 -25 13 -44 9 -22 -5 -29 -3 -29 9 0 21 -18 30 -35
16 -11 -9 -17 -7 -27 9 -11 17 -14 18 -28 6 -13 -11 -18 -11 -34 1 -14 10 -16
14 -5 14 12 0 12 2 0 9 -7 5 -22 6 -33 3 -11 -3 -23 0 -27 6 -3 5 -23 13 -44
17 -31 6 -36 5 -31 -8 6 -17 -12 -32 -21 -17 -3 5 -2 10 3 10 5 0 9 12 8 27
-1 22 -7 29 -26 31 -14 2 -33 12 -42 22 -10 10 -27 21 -38 25 -20 6 -20 8 -4
32 15 23 15 25 1 20 -21 -8 -107 21 -114 39 -2 7 -12 10 -21 6 -15 -5 -15 -4
-3 11 11 15 10 18 -13 27 -15 5 -29 18 -33 27 -4 10 -15 26 -26 35 -11 10 -16
18 -10 18 5 0 15 11 22 24 15 27 6 53 -12 37 -21 -17 -47 13 -49 57 -1 43 -17
55 -53 41 -19 -7 -19 -8 3 -8 17 -1 22 -7 22 -26 0 -28 -16 -31 -44 -10 -11 8
-28 15 -38 15 -10 0 -18 5 -18 10 0 6 5 10 10 10 6 0 10 5 10 11 0 6 -8 9 -18
7 -15 -4 -18 -1 -14 19 3 14 -3 32 -13 43 -10 11 -21 40 -26 66 -10 55 -17 64
-29 44 -6 -8 -10 -10 -10 -4 0 7 11 22 25 35 25 25 33 49 15 49 -5 0 -10 -7
-10 -15 0 -8 -7 -15 -16 -15 -13 0 -15 7 -11 34 4 24 1 36 -8 40 -8 3 -19 32
-26 65 -6 33 -15 58 -20 55 -5 -3 -9 19 -9 48 0 30 -5 59 -11 65 -11 11 -15
135 -5 152 3 5 -6 12 -21 16 -36 9 -74 35 -51 35 9 0 18 -6 20 -12 3 -9 9 -8
22 4 9 10 23 15 31 12 8 -4 15 -2 15 2 0 5 3 20 7 33 6 23 5 24 -32 18 -21 -3
-41 -10 -44 -15 -3 -5 -24 -12 -46 -16 -33 -6 -22 2 58 43 92 47 99 49 117 34
26 -23 45 -27 121 -26 143 0 240 110 255 289 19 232 -77 374 -254 374 -34 0
-70 -4 -80 -9 -69 -35 -68 -35 -114 -4 -23 16 -51 33 -62 36 -17 7 -15 11 16
49 101 123 200 153 338 105z m-347 -27 c-10 -11 -22 -20 -27 -20 -5 0 -1 9 9
20 10 11 22 20 26 20 5 0 1 -9 -8 -20z m2219 -47 c51 -58 77 -106 84 -155 l6
-45 -31 5 c-40 6 -61 -12 -61 -52 0 -36 15 -56 42 -56 10 0 18 -3 18 -8 0 -4
-35 -13 -77 -20 -69 -11 -78 -10 -96 6 -53 47 -76 169 -47 257 35 109 99 136
162 68z m-529 11 c65 -22 139 -91 167 -156 18 -43 22 -65 18 -128 -5 -92 -35
-151 -97 -195 -39 -27 -50 -30 -147 -33 -82 -3 -115 -1 -150 13 -90 34 -138
115 -138 235 -1 64 3 82 27 125 35 62 96 114 161 137 64 22 100 22 159 2z
m-1762 -103 c58 -22 181 -103 211 -139 9 -11 22 -30 28 -42 10 -19 13 -20 28
-7 22 19 48 9 87 -32 25 -27 30 -41 33 -100 3 -54 0 -76 -17 -109 -23 -45 -63
-77 -84 -69 -7 3 -35 -17 -61 -43 -56 -56 -157 -113 -242 -135 -86 -22 -227
-20 -310 6 -75 23 -109 43 -167 98 -54 51 -76 90 -84 151 -8 52 -10 55 -56 78
-26 14 -46 30 -44 36 2 6 23 16 46 22 48 11 59 23 101 104 46 91 123 153 240
192 74 24 212 19 291 -11z m3094 -12 c82 -15 124 -39 183 -104 77 -84 99 -174
66 -272 -44 -132 -206 -249 -374 -270 -108 -13 -251 71 -297 175 -89 201 100
464 348 481 8 1 42 -4 74 -10z m-2713 -39 c46 -13 99 -66 129 -128 35 -71 39
-206 9 -286 -38 -100 -126 -175 -206 -176 -17 0 -48 7 -69 16 l-38 15 34 35
c19 19 54 45 79 57 65 32 95 90 93 182 0 41 -8 86 -17 108 -18 42 -67 77 -107
77 -25 0 -79 45 -79 67 0 13 73 41 110 42 14 1 42 -4 62 -9z m1952 -238 c-32
-21 -84 -65 -114 -98 -92 -100 -200 -275 -200 -324 0 -12 -4 -19 -9 -16 -5 4
-12 -7 -16 -24 -4 -16 -10 -32 -15 -35 -5 -3 -6 -21 -3 -40 4 -28 2 -35 -11
-35 -11 0 -16 -9 -16 -26 0 -17 -4 -24 -13 -21 -7 3 -20 -8 -29 -24 -14 -24
-15 -29 -3 -29 8 0 15 5 15 11 0 8 6 7 16 -2 15 -12 16 -11 10 11 -6 19 -5 21
3 10 6 -8 10 -33 10 -55 -1 -32 -3 -35 -8 -15 l-6 25 -22 -22 c-12 -13 -18
-23 -14 -23 10 0 23 -34 25 -66 1 -13 -3 -20 -9 -17 -7 2 -17 -2 -23 -10 -9
-11 -6 -13 18 -9 16 2 31 12 33 21 3 12 5 10 6 -5 1 -17 -12 -26 -61 -48 -35
-14 -70 -26 -79 -26 -8 0 -19 -4 -25 -9 -46 -44 -334 -27 -334 19 0 13 17 13
25 0 9 -14 35 -13 35 2 0 6 7 19 16 29 14 16 13 18 -13 31 -29 14 -29 14 -25
-12 3 -19 -1 -27 -12 -27 -19 0 -19 4 -5 46 12 33 26 40 35 16 4 -8 15 -15 25
-15 17 0 18 3 9 20 -6 11 -14 18 -18 16 -5 -3 -14 -1 -22 4 -35 22 157 401
268 529 149 170 230 221 372 236 36 4 73 11 82 16 9 5 34 9 55 10 21 0 47 4
58 9 49 21 43 7 -11 -28z m296 33 c0 -7 -43 -23 -74 -29 -41 -7 -63 -24 -95
-71 -23 -34 -29 -53 -26 -78 4 -28 4 -29 -4 -7 -6 17 -9 20 -10 8 -1 -10 -6
-18 -12 -18 -6 0 -7 -5 -2 -12 4 -7 6 -21 5 -30 -2 -10 1 -18 7 -18 5 0 12 8
14 18 3 9 5 2 6 -15 1 -23 -3 -33 -14 -33 -15 0 -40 -48 -30 -58 3 -3 5 -1 5
4 0 6 6 18 13 29 13 16 16 14 37 -30 47 -96 125 -155 206 -155 25 0 34 -4 35
-17 0 -15 2 -15 9 2 5 11 9 14 9 8 1 -16 57 -17 67 -2 4 8 -4 9 -27 5 -19 -3
-27 -3 -19 1 8 3 21 12 28 20 21 21 78 63 85 63 4 0 7 -7 7 -15 0 -8 -5 -15
-12 -15 -16 0 -48 -31 -48 -47 0 -7 5 -12 12 -11 8 2 11 -11 9 -40 -1 -24 2
-49 8 -55 6 -8 6 -18 1 -27 -8 -12 -10 -11 -10 5 0 17 -7 20 -50 20 -45 0 -50
-2 -50 -22 0 -19 6 -23 30 -23 17 0 30 5 30 10 0 6 5 10 10 10 6 0 10 -12 10
-26 0 -20 -4 -24 -19 -19 -11 3 -21 0 -24 -8 -4 -10 4 -13 31 -12 25 0 37 6
43 20 6 17 8 16 8 -7 1 -24 -3 -28 -26 -28 -49 -1 -267 -19 -293 -25 -14 -2
-41 -8 -60 -11 -92 -16 -291 -70 -397 -107 -23 -8 -45 -12 -48 -9 -9 9 -6 125
6 188 14 81 42 168 76 245 34 73 112 199 125 199 4 0 8 6 8 14 0 23 146 153
207 184 47 24 72 30 131 31 39 0 72 -1 72 -4z m-4 -128 c0 -71 4 -89 29 -135
27 -51 79 -101 118 -115 30 -11 18 -27 -20 -27 -95 0 -193 117 -193 229 0 86
18 125 60 130 3 1 5 -36 6 -82z m-77 24 c-16 -46 -6 -148 19 -203 24 -52 82
-105 126 -116 41 -11 43 -28 5 -36 -137 -27 -273 169 -215 309 15 35 63 91 72
83 2 -3 -1 -19 -7 -37z m-1772 -23 c-3 -8 -6 -5 -6 6 -1 11 2 17 5 13 3 -3 4
-12 1 -19z m-647 -328 c0 -5 -4 -10 -10 -10 -5 0 -10 5 -10 10 0 6 5 10 10 10
6 0 10 -4 10 -10z m-23 -112 c-3 -8 -6 -5 -6 6 -1 11 2 17 5 13 3 -3 4 -12 1
-19z m-40 -70 c-3 -7 -5 -2 -5 12 0 14 2 19 5 13 2 -7 2 -19 0 -25z m85 -236
c3 -9 1 -26 -3 -37 -6 -15 -8 -11 -8 18 -1 40 4 48 11 19z m2787 -235 c-8 -7
-19 -12 -26 -10 -16 6 -27 -17 -14 -30 13 -13 15 -57 2 -57 -11 0 -21 35 -21
76 0 28 3 31 24 27 13 -3 27 0 31 7 4 6 9 9 12 6 3 -3 -1 -11 -8 -19z m-109
-84 c0 -45 -17 -61 -23 -22 -5 36 -2 49 14 49 5 0 9 -12 9 -27z m39 -5 c0 -28
-2 -30 -9 -13 -12 28 -12 45 0 45 6 0 10 -15 9 -32z m98 -42 c-4 -9 -15 -12
-32 -8 -19 3 -26 1 -23 -9 2 -8 -1 -17 -7 -19 -5 -3 -11 5 -13 18 -2 14 2 22
11 22 7 0 22 8 33 19 16 15 20 16 27 4 5 -8 6 -20 4 -27z m-5 -96 c3 -16 1
-30 -4 -30 -4 0 -8 14 -8 30 0 17 2 30 4 30 2 0 6 -13 8 -30z m-2649 -14 c30
-39 36 -56 10 -28 -40 41 -56 62 -47 62 5 0 21 -16 37 -34z m54 18 c-3 -3 -12
-4 -19 -1 -8 3 -5 6 6 6 11 1 17 -2 13 -5z m2548 -13 c3 -5 1 -12 -5 -16 -5
-3 -10 1 -10 9 0 18 6 21 15 7z m42 -61 c8 -12 9 -21 3 -25 -6 -3 -10 1 -10 9
0 9 -4 16 -10 16 -5 0 -10 5 -10 10 0 16 14 11 27 -10z m-2561 -35 c9 -8 11
-15 6 -15 -5 0 -15 7 -22 15 -7 8 -9 15 -6 15 4 0 14 -7 22 -15z m2504 -12 c0
-2 -7 -11 -15 -19 -13 -14 -15 -13 -15 10 0 18 4 24 15 20 8 -4 15 -8 15 -11z
m-410 -38 c0 -8 4 -15 9 -15 5 0 12 -8 14 -17 3 -11 5 -7 6 10 2 45 31 35 31
-11 0 -32 -5 -41 -25 -50 -45 -21 -50 -16 -50 43 0 30 3 55 8 55 4 0 7 -7 7
-15z m-2040 -5 c0 -5 -2 -10 -4 -10 -3 0 -8 5 -11 10 -3 6 -1 10 4 10 6 0 11
-4 11 -10z m2504 -12 c3 -13 5 -50 4 -83 -1 -50 -2 -53 -5 -17 -4 38 -7 42
-25 36 -15 -4 -19 -2 -16 7 3 8 11 14 19 14 7 0 15 8 17 18 4 22 -14 22 -36 1
-13 -13 -17 -14 -21 -3 -2 7 1 15 8 17 7 2 17 10 24 18 17 19 24 17 31 -8z
m-484 -28 c0 -13 -5 -18 -15 -14 -12 5 -13 10 -4 20 15 19 19 18 19 -6z m530
-30 c0 -5 -4 -10 -10 -10 -5 0 -10 5 -10 10 0 6 5 10 10 10 6 0 10 -4 10 -10z
m-133 -67 c-3 -10 -5 -2 -5 17 0 19 2 27 5 18 2 -10 2 -26 0 -35z m-252 26
c10 -15 -1 -23 -20 -15 -9 3 -13 10 -10 16 8 13 22 13 30 -1z m-56 -66 c0 -16
-3 -22 -6 -15 -6 14 -49 16 -58 2 -9 -15 -25 -12 -25 5 0 11 11 15 40 15 22 0
40 5 40 10 0 6 2 10 5 10 3 0 5 -12 4 -27z m91 23 c0 -3 -4 -8 -10 -11 -5 -3
-10 -1 -10 4 0 6 5 11 10 11 6 0 10 -2 10 -4z m120 -8 c0 -4 -4 -8 -10 -8 -5
0 -11 -8 -11 -17 -1 -16 -2 -15 -6 1 -4 15 -7 16 -14 5 -7 -11 -9 -8 -9 8 0
18 5 22 25 21 14 -1 25 -6 25 -10z m-2085 -8 c3 -5 -1 -10 -9 -10 -9 0 -16 5
-16 10 0 6 4 10 9 10 6 0 13 -4 16 -10z m2218 -12 c-2 -5 -3 -12 -3 -17 0 -11
-78 -12 -85 -1 -3 5 -13 7 -23 4 -14 -5 -14 -4 -2 4 8 6 17 9 21 6 4 -2 10 0
14 5 7 12 81 10 78 -1z m-2147 -29 c8 -14 -10 -11 -32 6 -18 13 -18 14 4 8 12
-3 25 -9 28 -14z m1904 -49 c5 0 10 6 11 13 0 9 2 9 6 -1 2 -6 10 -9 16 -5 15
9 55 12 172 14 194 2 212 -5 35 -15 -216 -12 -425 -27 -447 -32 -13 -2 -23 0
-23 5 0 5 43 12 96 16 86 7 97 10 102 28 5 20 5 20 13 -1 5 -12 13 -22 19 -22z
m-393 24 c-3 -3 -12 -4 -19 -1 -8 3 -5 6 6 6 11 1 17 -2 13 -5z m283 -4 c-19
-13 -30 -13 -30 0 0 6 10 10 23 10 18 0 19 -2 7 -10z m-1717 -7 c-7 -2 -19 -2
-25 0 -7 3 -2 5 12 5 14 0 19 -2 13 -5z m1527 -17 c0 -2 -15 -6 -34 -8 -19 -2
-32 0 -30 4 5 8 64 12 64 4z m-1453 -12 c-3 -3 -12 -4 -19 -1 -8 3 -5 6 6 6
11 1 17 -2 13 -5z m134 -24 c5 0 9 -5 9 -11 0 -15 -43 -7 -48 10 -3 10 0 12
12 8 10 -4 22 -7 27 -7z m802 -17 c-7 -2 -21 -2 -30 0 -10 3 -4 5 12 5 17 0
24 -2 18 -5z m-698 -24 l20 -8 -20 0 c-11 0 -33 6 -50 14 l-30 14 30 -6 c17
-3 39 -10 50 -14z m178 14 c-7 -2 -19 -2 -25 0 -7 3 -2 5 12 5 14 0 19 -2 13
-5z m-73 -33 c12 -8 11 -10 -5 -9 -11 1 -31 5 -45 9 -24 8 -24 8 5 9 17 0 37
-4 45 -9z m-1740 -458 c0 -4 -19 -9 -42 -9 -30 -2 -38 1 -28 7 18 12 70 13 70
2z m290 -12 c0 -5 -7 -10 -15 -10 -8 0 -15 5 -15 10 0 6 7 10 15 10 8 0 15 -4
15 -10z m-395 -10 c-3 -5 -27 -9 -53 -9 -42 1 -44 2 -17 9 45 11 77 11 70 0z
m300 -10 c3 -5 3 -10 -2 -11 -4 0 -16 -2 -25 -4 -10 -2 -18 0 -18 4 0 21 34
29 45 11z m-410 -10 c4 -6 -9 -10 -32 -9 -30 0 -34 2 -18 9 27 12 43 12 50 0z
m65 -75 c0 -10 -10 -15 -30 -15 -29 0 -38 9 -23 23 13 13 53 7 53 -8z m130 -5
c0 -5 -7 -10 -16 -10 -8 0 -12 5 -9 10 3 6 10 10 16 10 5 0 9 -4 9 -10z"/>
<path d="M2000 3720 c0 -5 -9 -10 -20 -10 -39 0 -20 -25 20 -27 46 -3 47 0 20
27 -11 11 -20 16 -20 10z"/>
<path d="M1805 3610 c3 -5 10 -10 16 -10 5 0 9 5 9 10 0 6 -7 10 -16 10 -8 0
-12 -4 -9 -10z"/>
<path d="M1890 3600 c0 -5 7 -10 15 -10 8 0 15 5 15 10 0 6 -7 10 -15 10 -8 0
-15 -4 -15 -10z"/>
<path d="M2128 3543 c7 -3 16 -2 19 1 4 3 -2 6 -13 5 -11 0 -14 -3 -6 -6z"/>
<path d="M1678 3493 c7 -3 16 -2 19 1 4 3 -2 6 -13 5 -11 0 -14 -3 -6 -6z"/>
<path d="M1756 3485 c4 -8 8 -15 11 -15 2 0 11 7 19 15 14 13 13 15 -10 15
-18 0 -24 -4 -20 -15z"/>
<path d="M1685 3470 c-3 -5 1 -10 10 -10 9 0 13 5 10 10 -3 6 -8 10 -10 10 -2
0 -7 -4 -10 -10z"/>
<path d="M1883 3473 c9 -2 23 -2 30 0 6 3 -1 5 -18 5 -16 0 -22 -2 -12 -5z"/>
<path d="M1638 3443 c6 -2 18 -2 25 0 6 3 1 5 -13 5 -14 0 -19 -2 -12 -5z"/>
<path d="M2246 3379 c-32 -5 -77 -20 -100 -33 -49 -29 -145 -136 -122 -136 20
0 20 -19 1 -44 -17 -22 -21 -61 -6 -51 6 3 7 -9 4 -30 -4 -22 -1 -41 8 -51 8
-10 19 -31 24 -48 9 -27 15 -31 44 -29 19 1 36 5 40 10 19 27 94 74 134 82 55
13 181 -6 267 -40 67 -26 128 -35 143 -20 16 16 10 99 -14 174 -19 58 -29 74
-74 112 -102 87 -223 124 -349 104z m175 -45 c97 -31 190 -106 214 -174 21
-59 30 -146 17 -154 -6 -4 -40 11 -76 33 -91 56 -161 75 -281 75 -55 1 -114
-3 -132 -8 -30 -8 -32 -7 -42 30 -6 22 -14 59 -18 82 -5 40 -3 46 23 68 45 38
79 53 136 62 59 10 92 7 159 -14z m-330 -197 c7 -31 17 -61 23 -66 7 -6 32 -2
66 9 60 21 130 26 130 10 0 -5 -13 -10 -29 -10 -38 0 -108 -30 -149 -64 -23
-20 -33 -24 -37 -14 -10 31 -32 135 -34 162 -1 27 11 60 15 41 1 -6 7 -36 15
-68z"/>
<path d="M1676 3282 c-3 -5 1 -15 9 -22 16 -14 20 -3 6 19 -5 8 -11 9 -15 3z"/>
<path d="M1737 3210 c3 -11 9 -20 14 -20 11 0 11 3 3 24 -9 23 -23 20 -17 -4z"/>
<path d="M1775 3179 c7 -34 15 -39 35 -19 22 22 26 40 9 40 -5 0 -7 -5 -3 -12
5 -7 3 -8 -7 -2 -25 15 -38 13 -34 -7z m22 -4 c0 -8 -4 -12 -9 -9 -5 3 -6 10
-3 15 9 13 12 11 12 -6z"/>
<path d="M1880 3000 c0 -16 4 -30 8 -30 5 0 7 14 4 30 -2 17 -6 30 -8 30 -2 0
-4 -13 -4 -30z"/>
<path d="M2435 3010 c3 -5 8 -10 11 -10 2 0 4 5 4 10 0 6 -5 10 -11 10 -5 0
-7 -4 -4 -10z"/>
<path d="M2016 2973 c9 -36 10 -38 16 -16 3 10 -1 24 -9 32 -12 10 -13 8 -7
-16z"/>
<path d="M2200 2990 c-8 -5 -12 -12 -9 -15 4 -3 12 1 19 10 14 17 11 19 -10 5z"/>
<path d="M2961 2964 c0 -11 3 -14 6 -6 3 7 2 16 -1 19 -3 4 -6 -2 -5 -13z"/>
<path d="M2650 2950 c0 -5 5 -10 11 -10 5 0 7 5 4 10 -3 6 -8 10 -11 10 -2 0
-4 -4 -4 -10z"/>
<path d="M2965 2920 c-3 -11 -13 -20 -21 -20 -8 0 -14 -7 -14 -16 0 -14 1 -14
16 0 8 9 19 16 24 16 12 0 21 28 10 35 -5 3 -11 -4 -15 -15z"/>
<path d="M1921 2873 c-1 -23 4 -33 14 -33 8 0 15 9 15 21 0 11 -4 18 -9 14 -5
-3 -12 3 -14 12 -3 10 -5 3 -6 -14z"/>
<path d="M2883 2838 c1 -15 6 -23 11 -18 4 4 4 16 -2 26 -9 16 -10 14 -9 -8z"/>
<path d="M1951 2783 c5 -26 14 -52 20 -58 8 -7 10 -4 6 10 -3 11 -8 35 -12 52
-4 18 -10 35 -14 38 -5 2 -4 -17 0 -42z"/>
<path d="M2250 2799 c0 -5 5 -7 10 -4 6 3 10 8 10 11 0 2 -4 4 -10 4 -5 0 -10
-5 -10 -11z"/>
<path d="M2860 2790 c0 -5 5 -10 10 -10 6 0 10 5 10 10 0 6 -4 10 -10 10 -5 0
-10 -4 -10 -10z"/>
<path d="M2190 2735 c0 -8 2 -15 4 -15 2 0 6 7 10 15 3 8 1 15 -4 15 -6 0 -10
-7 -10 -15z"/>
<path d="M1980 2637 c0 -26 3 -47 8 -47 9 0 9 76 -1 86 -4 4 -7 -14 -7 -39z"/>
<path d="M1982 2555 c1 -17 10 -36 18 -43 13 -12 13 -13 -4 -8 -15 5 -17 2
-12 -16 3 -13 6 -34 7 -48 0 -17 4 -11 13 20 7 25 10 50 7 55 -3 6 -4 17 -3
26 2 9 -5 22 -14 30 -14 12 -16 10 -12 -16z"/>
<path d="M2151 2465 c1 -19 18 -51 18 -35 0 8 -4 22 -9 30 -5 8 -9 11 -9 5z"/>
<path d="M2513 2246 c-13 -7 -20 -15 -17 -19 8 -7 -30 -44 -42 -40 -5 2 -9
-10 -10 -26 -1 -30 -1 -30 45 21 69 76 75 92 24 64z"/>
<path d="M1980 2231 c0 -25 6 -27 13 -6 4 8 2 17 -3 20 -6 4 -10 -3 -10 -14z"/>
<path d="M2448 2243 c7 -3 16 -2 19 1 4 3 -2 6 -13 5 -11 0 -14 -3 -6 -6z"/>
<path d="M1974 2148 c-4 -6 -3 -8 4 -4 5 3 13 0 15 -6 3 -8 6 -6 6 5 1 19 -14
23 -25 5z"/>
<path d="M1958 2075 c-3 -14 -1 -28 3 -31 5 -3 9 9 9 25 0 38 -6 40 -12 6z"/>
<path d="M2356 2016 c-21 -33 -22 -64 -1 -46 8 7 12 16 9 22 -3 5 0 16 7 24 6
8 10 17 7 20 -3 2 -13 -7 -22 -20z"/>
<path d="M1948 2013 c7 -3 16 -2 19 1 4 3 -2 6 -13 5 -11 0 -14 -3 -6 -6z"/>
<path d="M2320 1920 c0 -11 2 -20 4 -20 2 0 6 9 9 20 3 11 1 20 -4 20 -5 0 -9
-9 -9 -20z"/>
<path d="M2287 1866 c-6 -16 2 -28 14 -20 12 7 11 34 0 34 -5 0 -11 -6 -14
-14z"/>
<path d="M1950 1850 c0 -17 66 -90 81 -90 15 0 11 7 -36 57 -25 26 -45 41 -45
33z"/>
<path d="M2270 1819 c0 -5 5 -7 10 -4 6 3 10 8 10 11 0 2 -4 4 -10 4 -5 0 -10
-5 -10 -11z"/>
<path d="M2250 1781 c0 -14 -5 -18 -20 -14 -11 3 -20 0 -20 -6 0 -6 7 -11 15
-11 8 0 15 -7 15 -15 0 -8 -4 -15 -10 -15 -5 0 -10 -4 -10 -10 0 -19 20 -10
29 13 17 45 21 77 11 77 -5 0 -10 -9 -10 -19z"/>
<path d="M2062 1720 c23 -31 39 -34 46 -9 3 11 2 11 -7 -1 -9 -13 -12 -12 -25
5 -9 11 -16 23 -16 28 0 4 -5 7 -10 7 -6 0 -1 -14 12 -30z"/>
<path d="M2116 1682 c-3 -6 5 -17 19 -26 29 -19 33 -7 6 18 -11 10 -22 13 -25
8z"/>
<path d="M1503 3248 c-30 -14 -29 -24 2 -23 25 2 49 15 26 15 -7 0 -9 5 -6 10
7 12 7 12 -22 -2z"/>
<path d="M1610 3172 c0 -13 23 -32 39 -32 11 0 9 5 -7 20 -23 21 -32 25 -32
12z"/>
<path d="M1671 3094 c0 -11 3 -14 6 -6 3 7 2 16 -1 19 -3 4 -6 -2 -5 -13z"/>
<path d="M1264 3016 c22 -18 42 -21 50 -8 3 5 0 9 -7 9 -7 0 -23 3 -37 7 -24
7 -24 6 -6 -8z"/>
<path d="M1390 2971 c0 -12 46 -41 66 -41 14 0 14 3 4 15 -7 9 -15 13 -18 10
-3 -3 -16 2 -29 10 -13 9 -23 11 -23 6z"/>
<path d="M1481 2893 c10 -2 19 -14 23 -26 3 -11 8 -18 11 -15 11 11 -15 48
-33 47 -15 -1 -15 -2 -1 -6z"/>
<path d="M1780 2891 c0 -6 5 -13 10 -16 6 -3 10 1 10 9 0 9 -4 16 -10 16 -5 0
-10 -4 -10 -9z"/>
<path d="M1530 2847 c0 -19 5 -27 18 -27 9 0 26 -11 36 -25 21 -28 36 -32 36
-9 0 8 -4 13 -9 9 -5 -3 -12 4 -16 15 -3 11 -13 20 -20 20 -8 0 -21 10 -29 22
l-16 22 0 -27z"/>
<path d="M1625 2751 c-3 -6 6 -28 20 -50 14 -23 25 -45 25 -51 0 -5 7 -10 15
-10 8 0 14 -5 13 -11 -2 -6 3 -14 10 -16 6 -3 12 2 12 11 0 9 -5 16 -10 16 -6
0 -15 11 -20 25 -5 14 -14 25 -19 25 -5 0 -12 13 -16 30 -7 33 -20 46 -30 31z"/>
<path d="M1851 2733 c0 -12 -4 -30 -7 -40 -5 -14 -4 -15 5 -7 7 6 11 24 8 40
-3 21 -4 23 -6 7z"/>
<path d="M1881 2624 c0 -11 3 -14 6 -6 3 7 2 16 -1 19 -3 4 -6 -2 -5 -13z"/>
<path d="M1735 2620 c-3 -6 1 -7 9 -4 18 7 21 14 7 14 -6 0 -13 -4 -16 -10z"/>
<path d="M1730 2509 c0 -20 4 -28 11 -23 9 5 10 -4 5 -31 -5 -25 -4 -35 3 -30
7 3 8 0 5 -9 -6 -17 16 -76 28 -76 5 0 8 7 8 15 0 8 -3 15 -7 15 -5 0 -9 21
-11 48 -4 60 -20 122 -32 122 -6 0 -10 -14 -10 -31z"/>
<path d="M1825 2350 c-3 -5 -1 -10 4 -10 6 0 11 5 11 10 0 6 -2 10 -4 10 -3 0
-8 -4 -11 -10z"/>
<path d="M1880 2350 c0 -5 5 -10 10 -10 6 0 10 5 10 10 0 6 -4 10 -10 10 -5 0
-10 -4 -10 -10z"/>
<path d="M1794 2234 c3 -9 6 -22 6 -30 0 -8 7 -14 15 -14 10 0 15 9 14 28 l-1
27 -8 -25 -8 -25 -1 28 c-1 15 -6 27 -12 27 -6 0 -8 -7 -5 -16z"/>
<path d="M1800 2170 c0 -5 7 -10 16 -10 8 0 12 5 9 10 -3 6 -10 10 -16 10 -5
0 -9 -4 -9 -10z"/>
<path d="M1094 2879 c-10 -4 -32 -8 -47 -8 -25 -1 -69 -25 -104 -58 -11 -9
-10 -15 3 -27 8 -9 12 -16 7 -16 -5 0 -14 5 -20 11 -13 13 -33 4 -33 -14 0 -7
12 -20 26 -30 25 -18 26 -18 39 -1 7 11 11 22 9 26 -3 5 0 8 5 8 6 0 11 -6 11
-13 0 -14 39 -41 48 -32 3 3 -4 12 -16 21 -26 18 -29 41 -4 47 13 4 12 5 -5 6
-12 0 -23 -5 -26 -11 -2 -7 -8 -9 -13 -5 -4 4 -4 16 2 25 18 28 66 47 122 46
28 0 52 0 52 1 0 0 -8 8 -18 16 -12 10 -25 13 -38 8z"/>
<path d="M1200 2860 c0 -13 11 -13 30 0 12 8 11 10 -7 10 -13 0 -23 -4 -23
-10z"/>
<path d="M1285 2830 c17 -11 35 -20 40 -20 16 1 -38 40 -55 40 -8 0 -1 -9 15
-20z"/>
<path d="M1030 2831 c0 -6 4 -11 9 -11 5 0 12 -8 14 -17 4 -15 5 -15 6 -2 0 9
-6 22 -14 29 -10 9 -15 9 -15 1z"/>
<path d="M1148 2823 c7 -3 16 -2 19 1 4 3 -2 6 -13 5 -11 0 -14 -3 -6 -6z"/>
<path d="M1075 2764 c-20 -15 -12 -17 19 -5 11 4 15 10 10 13 -5 4 -18 0 -29
-8z"/>
<path d="M1380 2750 c0 -5 5 -10 10 -10 6 0 10 5 10 10 0 6 -4 10 -10 10 -5 0
-10 -4 -10 -10z"/>
<path d="M1078 2733 c7 -3 16 -2 19 1 4 3 -2 6 -13 5 -11 0 -14 -3 -6 -6z"/>
<path d="M1280 2728 c0 -9 5 -20 10 -23 13 -8 13 5 0 25 -8 13 -10 13 -10 -2z"/>
<path d="M1352 2720 c0 -14 2 -19 5 -12 2 6 2 18 0 25 -3 6 -5 1 -5 -13z"/>
<path d="M975 2710 c3 -5 10 -10 16 -10 5 0 9 5 9 10 0 6 -7 10 -16 10 -8 0
-12 -4 -9 -10z"/>
<path d="M1435 2650 c4 -6 11 -8 16 -5 14 9 11 15 -7 15 -8 0 -12 -5 -9 -10z"/>
<path d="M1484 2564 c3 -9 6 -18 6 -20 0 -2 4 -4 9 -4 5 0 7 9 4 20 -3 11 -10
20 -15 20 -6 0 -7 -7 -4 -16z"/>
<path d="M1531 2464 c0 -11 3 -14 6 -6 3 7 2 16 -1 19 -3 4 -6 -2 -5 -13z"/>
<path d="M1416 2445 c4 -8 8 -15 10 -15 2 0 4 7 4 15 0 8 -4 15 -10 15 -5 0
-7 -7 -4 -15z"/>
<path d="M1420 2381 c0 -25 6 -27 13 -6 4 8 2 17 -3 20 -6 4 -10 -3 -10 -14z"/>
<path d="M1260 2060 c0 -5 4 -10 9 -10 6 0 13 5 16 10 3 6 -1 10 -9 10 -9 0
-16 -4 -16 -10z"/>
<path d="M970 2050 c0 -5 5 -10 10 -10 6 0 10 5 10 10 0 6 -4 10 -10 10 -5 0
-10 -4 -10 -10z"/>
<path d="M1601 2004 c0 -11 3 -14 6 -6 3 7 2 16 -1 19 -3 4 -6 -2 -5 -13z"/>
<path d="M1040 1950 c0 -5 5 -10 10 -10 6 0 10 5 10 10 0 6 -4 10 -10 10 -5 0
-10 -4 -10 -10z"/>
<path d="M1630 1911 c0 -5 5 -13 10 -16 6 -3 10 -2 10 4 0 5 -4 13 -10 16 -5
3 -10 2 -10 -4z"/>
<path d="M1671 1875 c17 -45 46 -95 57 -95 17 0 15 7 -15 48 -33 45 -47 61
-42 47z"/>
<path d="M961 1714 c0 -11 3 -14 6 -6 3 7 2 16 -1 19 -3 4 -6 -2 -5 -13z"/>
<path d="M1785 1710 c3 -5 11 -10 16 -10 6 0 7 5 4 10 -3 6 -11 10 -16 10 -6
0 -7 -4 -4 -10z"/>
<path d="M3679 1696 c-3 -3 -39 -6 -82 -7 -42 -1 -77 -6 -77 -10 0 -8 44 -14
80 -11 75 7 95 11 98 21 4 11 -10 16 -19 7z"/>
<path d="M3430 1680 c-13 -9 -13 -11 0 -20 11 -7 16 -5 18 5 2 7 15 16 30 18
26 4 26 4 -3 5 -16 1 -37 -3 -45 -8z"/>
<path d="M3385 1670 c-3 -5 -2 -10 4 -10 5 0 13 5 16 10 3 6 2 10 -4 10 -5 0
-13 -4 -16 -10z"/>
<path d="M1830 1661 c0 -5 5 -13 10 -16 6 -3 10 -2 10 4 0 5 -4 13 -10 16 -5
3 -10 2 -10 -4z"/>
<path d="M3301 1656 c-9 -11 -7 -15 8 -19 17 -4 31 9 31 29 0 10 -29 3 -39
-10z"/>
<path d="M1012 1640 c0 -14 2 -19 5 -12 2 6 2 18 0 25 -3 6 -5 1 -5 -13z"/>
<path d="M3235 1650 c-10 -17 5 -30 33 -30 24 1 25 2 10 14 -10 7 -15 16 -11
19 3 4 -1 7 -10 7 -9 0 -19 -4 -22 -10z"/>
<path d="M3604 1626 c2 -17 4 -37 5 -43 1 -18 31 -16 31 1 0 8 -5 18 -11 21
-7 5 -4 14 7 26 9 10 15 19 13 20 -42 9 -48 5 -45 -25z"/>
<path d="M3196 1636 c4 -9 -3 -16 -18 -19 -19 -4 -19 -4 -3 -5 27 -2 49 13 41
27 -10 16 -26 14 -20 -3z"/>
<path d="M3480 1630 c0 -5 7 -10 16 -10 8 0 12 5 9 10 -3 6 -10 10 -16 10 -5
0 -9 -4 -9 -10z"/>
<path d="M3092 1614 c-11 -12 -10 -14 5 -14 10 0 26 7 36 14 16 13 16 14 -5
14 -13 0 -29 -7 -36 -14z"/>
<path d="M2972 1581 c-11 -7 -11 -9 1 -14 9 -3 18 1 21 9 6 16 -2 18 -22 5z"/>
<path d="M3672 1563 c2 -10 11 -19 21 -21 24 -5 21 15 -4 28 -18 10 -20 9 -17
-7z"/>
<path d="M2858 1543 c-6 -7 -7 -28 -3 -49 8 -43 14 -40 18 7 2 25 8 34 20 33
9 -1 15 2 12 6 -3 5 1 10 7 13 7 2 0 4 -15 3 -16 0 -33 -7 -39 -13z"/>
<path d="M2958 1543 c7 -3 16 -2 19 1 4 3 -2 6 -13 5 -11 0 -14 -3 -6 -6z"/>
<path d="M2795 1530 l-30 -8 32 -1 c17 0 35 4 38 9 7 11 3 11 -40 0z"/>
<path d="M3026 1532 c-4 -7 -13 -9 -19 -5 -7 3 -3 -4 8 -16 17 -19 21 -21 23
-7 5 25 -3 43 -12 28z"/>
<path d="M3352 1520 c0 -14 2 -19 5 -12 2 6 2 18 0 25 -3 6 -5 1 -5 -13z"/>
<path d="M2705 1496 c-11 -8 -31 -16 -45 -17 -20 -1 -17 -3 13 -11 38 -10 41
-9 101 21 5 2 7 -3 3 -12 -5 -13 -1 -17 16 -16 12 0 16 3 10 6 -7 2 -13 9 -13
14 0 6 6 7 13 3 9 -5 9 -4 1 5 -18 20 -77 24 -99 7z"/>
<path d="M2160 1470 c-13 -8 -12 -10 3 -10 9 0 17 5 17 10 0 12 -1 12 -20 0z"/>
<path d="M3090 1470 c0 -5 5 -10 10 -10 6 0 10 5 10 10 0 6 -4 10 -10 10 -5 0
-10 -4 -10 -10z"/>
<path d="M2240 1432 c0 -4 11 -8 24 -8 14 0 22 4 20 8 -3 4 -14 8 -25 8 -10 0
-19 -4 -19 -8z"/>
<path d="M3636 1433 c-11 -11 -6 -21 14 -26 12 -3 20 0 20 8 0 14 -25 27 -34
18z"/>
<path d="M3455 1386 c10 -62 4 -74 -34 -68 -17 2 -29 8 -26 12 6 10 -14 25
-21 17 -3 -3 1 -14 8 -26 10 -16 23 -21 55 -21 41 0 60 10 45 25 -4 4 -7 27
-7 53 0 28 -5 47 -13 50 -11 3 -12 -6 -7 -42z"/>
<path d="M3090 1395 c0 -8 5 -15 10 -15 6 0 10 7 10 15 0 8 -4 15 -10 15 -5 0
-10 -7 -10 -15z"/>
<path d="M3586 1401 c-4 -7 -5 -15 -2 -18 9 -9 19 4 14 18 -4 11 -6 11 -12 0z"/>
<path d="M3425 1370 c3 -5 8 -10 11 -10 2 0 4 5 4 10 0 6 -5 10 -11 10 -5 0
-7 -4 -4 -10z"/>
<path d="M3330 1296 c0 -2 7 -6 15 -10 8 -3 15 -1 15 4 0 6 -7 10 -15 10 -8 0
-15 -2 -15 -4z"/>
<path d="M3176 1242 c-4 -7 -17 -13 -29 -13 -17 -1 -18 -2 -4 -6 9 -2 17 -9
17 -14 0 -5 5 -9 11 -9 5 0 8 4 5 9 -4 5 -1 11 5 13 7 2 10 10 7 18 -3 10 -6
11 -12 2z"/>
<path d="M3000 1196 c0 -13 -3 -31 -6 -40 -4 -12 0 -16 15 -16 22 0 28 29 15
64 -9 24 -24 19 -24 -8z"/>
<path d="M3286 1205 c-9 -25 21 -29 50 -6 l27 21 -36 0 c-22 0 -37 -6 -41 -15z"/>
<path d="M3570 1172 c0 -21 7 -32 25 -40 15 -7 25 -8 25 -2 0 6 -4 10 -9 10
-5 0 -11 12 -13 27 -4 38 -28 42 -28 5z"/>
<path d="M3180 1161 c0 -6 9 -9 20 -8 11 1 20 5 20 9 0 4 -9 8 -20 8 -11 0
-20 -4 -20 -9z"/>
<path d="M2880 1125 c0 -11 11 -15 40 -15 29 0 40 4 40 15 0 11 -11 15 -40 15
-29 0 -40 -4 -40 -15z m37 -1 c-3 -3 -12 -4 -19 -1 -8 3 -5 6 6 6 11 1 17 -2
13 -5z"/>
<path d="M3280 1100 c0 -22 4 -40 9 -40 18 0 41 12 41 22 0 5 -4 6 -10 3 -6
-4 -10 7 -10 24 0 21 -5 31 -15 31 -11 0 -15 -11 -15 -40z"/>
<path d="M3434 1090 c1 -31 4 -35 29 -36 24 -1 24 -1 3 3 -19 3 -26 12 -29 36
-4 31 -4 31 -3 -3z"/>
<path d="M2930 1051 c-31 -9 -33 -35 -2 -39 12 -2 22 -8 22 -13 0 -5 7 -9 15
-9 8 0 15 6 15 13 0 21 -12 57 -19 56 -3 -1 -17 -4 -31 -8z"/>
<path d="M3365 1030 c-4 -6 -3 -16 3 -22 6 -6 12 -6 17 2 4 6 3 16 -3 22 -6 6
-12 6 -17 -2z"/>
<path d="M2612 1005 c-10 -22 -9 -25 8 -25 15 0 20 7 20 25 0 14 -4 25 -8 25
-5 0 -14 -11 -20 -25z"/>
<path d="M3191 1004 c0 -11 3 -14 6 -6 3 7 2 16 -1 19 -3 4 -6 -2 -5 -13z"/>
<path d="M2853 940 c0 -25 2 -35 4 -22 2 12 2 32 0 45 -2 12 -4 2 -4 -23z"/>
<path d="M3004 956 c3 -14 1 -26 -5 -28 -6 -2 -8 -14 -4 -31 8 -29 25 -37 25
-12 0 8 5 15 10 15 6 0 10 7 10 15 0 8 -4 15 -10 15 -5 0 -10 11 -10 25 0 14
-5 25 -11 25 -7 0 -9 -9 -5 -24z"/>
<path d="M1473 963 c-7 -2 -13 -13 -13 -24 0 -14 7 -19 25 -19 20 0 25 5 25
25 0 24 -11 29 -37 18z"/>
<path d="M2798 946 c-3 -14 -1 -31 3 -38 6 -8 9 1 9 25 0 42 -6 48 -12 13z"/>
<path d="M1385 950 c-3 -5 3 -10 14 -10 12 0 21 5 21 10 0 6 -6 10 -14 10 -8
0 -18 -4 -21 -10z"/>
<path d="M2712 949 c2 -7 10 -15 17 -17 8 -3 12 1 9 9 -2 7 -10 15 -17 17 -8
3 -12 -1 -9 -9z"/>
<path d="M3130 921 c0 -5 -3 -18 -6 -28 -6 -15 -3 -14 15 4 25 26 26 33 6 33
-8 0 -15 -4 -15 -9z"/>
<path d="M3083 903 c-25 -5 -30 -31 -10 -52 10 -11 10 -13 0 -7 -8 4 -13 1
-13 -8 0 -9 9 -16 20 -16 15 0 19 5 16 23 -2 12 0 32 5 45 5 12 7 21 6 21 -1
-1 -12 -4 -24 -6z"/>
<path d="M2633 860 c0 -25 2 -35 4 -22 2 12 2 32 0 45 -2 12 -4 2 -4 -23z"/>
<path d="M2934 855 c-4 -9 0 -23 7 -31 13 -12 15 -11 17 11 2 29 -15 43 -24
20z"/>
<path d="M1606 831 c-4 -5 3 -7 14 -4 23 6 26 13 6 13 -8 0 -17 -4 -20 -9z"/>
<path d="M1840 819 c0 -5 5 -7 10 -4 6 3 10 8 10 11 0 2 -4 4 -10 4 -5 0 -10
-5 -10 -11z"/>
<path d="M2485 820 c3 -5 15 -10 26 -10 10 0 19 5 19 10 0 6 -12 10 -26 10
-14 0 -23 -4 -19 -10z"/>
<path d="M2773 820 c22 -14 24 -78 2 -86 -19 -8 -20 -44 -1 -44 10 0 17 15 21
43 10 63 4 91 -20 95 -18 2 -18 2 -2 -8z"/>
<path d="M2652 770 l-10 -40 34 0 c29 0 34 4 34 23 -1 24 -22 57 -37 57 -6 0
-15 -18 -21 -40z"/>
<path d="M1650 790 c0 -5 7 -10 15 -10 8 0 15 5 15 10 0 6 -7 10 -15 10 -8 0
-15 -4 -15 -10z"/>
<path d="M2362 765 c0 -16 2 -22 5 -12 2 9 2 23 0 30 -3 6 -5 -1 -5 -18z"/>
<path d="M2390 751 c0 -6 5 -13 10 -16 6 -3 10 1 10 9 0 9 -4 16 -10 16 -5 0
-10 -4 -10 -9z"/>
<path d="M2430 740 c0 -5 5 -10 10 -10 6 0 10 5 10 10 0 6 -4 10 -10 10 -5 0
-10 -4 -10 -10z"/>
<path d="M1902 728 c6 -18 28 -21 28 -4 0 9 -7 16 -16 16 -9 0 -14 -5 -12 -12z"/>
<path d="M1958 723 c7 -3 16 -2 19 1 4 3 -2 6 -13 5 -11 0 -14 -3 -6 -6z"/>
<path d="M2210 651 c0 -13 62 -20 80 -10 12 7 11 9 -5 10 -11 1 -32 3 -47 5
-16 1 -28 -1 -28 -5z"/>
<path d="M2628 2544 c-18 -38 7 -78 50 -82 39 -4 58 9 67 45 9 37 -18 63 -67
63 -32 0 -40 -5 -50 -26z"/>
<path d="M676 2460 l-36 -32 -40 16 c-46 18 -122 21 -151 6 -13 -7 -19 -21
-19 -45 0 -54 54 -69 156 -44 44 11 46 11 72 -20 21 -24 40 -34 81 -41 72 -13
304 -13 296 0 -3 6 -45 10 -93 10 -104 0 -220 16 -239 32 -8 6 -21 24 -29 40
-14 27 -13 29 18 60 l32 31 141 -6 c78 -4 149 -9 158 -13 9 -3 17 -2 17 4 0
12 -67 21 -216 28 l-111 6 -37 -32z m-101 -36 c47 -19 36 -34 -32 -44 -54 -8
-93 2 -93 24 0 36 64 46 125 20z"/>
<path d="M3865 2514 c-49 -25 -65 -45 -64 -78 l1 -31 13 31 c17 38 31 49 75
62 81 22 111 -36 43 -83 -27 -18 -51 -25 -85 -25 -41 0 -48 -3 -48 -20 0 -38
-23 -68 -81 -106 -53 -34 -72 -54 -51 -54 4 0 30 13 58 30 57 32 94 72 94 101
0 13 7 19 24 19 32 0 106 27 128 47 28 25 23 77 -8 102 -32 25 -59 26 -99 5z"/>
<path d="M3709 2419 c-51 -12 -149 -58 -149 -69 0 -15 16 -12 57 13 51 30 101
47 141 47 20 0 31 4 27 10 -7 12 -26 11 -76 -1z"/>
<path d="M3051 2421 c-21 -13 5 -24 29 -11 11 6 20 13 20 15 0 8 -34 5 -49 -4z"/>
<path d="M2984 2400 c0 -11 1 -20 3 -20 1 0 7 9 13 20 8 15 8 20 -3 20 -7 0
-13 -9 -13 -20z"/>
<path d="M2952 2379 c-7 -12 -11 -24 -8 -27 3 -3 6 0 6 7 0 7 5 9 10 6 6 -3
10 3 10 14 0 26 -2 26 -18 0z"/>
<path d="M3003 2377 c-11 -12 -23 -31 -25 -42 -2 -11 -9 -19 -16 -18 -14 3
-45 -53 -39 -70 2 -7 15 6 29 28 14 22 42 56 62 74 20 19 36 39 36 43 0 15
-25 7 -47 -15z"/>
<path d="M2733 2304 c-17 -19 -27 -36 -22 -40 5 -3 9 0 9 6 0 7 8 9 20 5 15
-5 18 -2 15 15 -2 12 2 23 10 27 15 5 21 24 8 22 -5 -1 -22 -17 -40 -35z"/>
<path d="M2665 2230 c-3 -5 -1 -10 4 -10 6 0 11 5 11 10 0 6 -2 10 -4 10 -3 0
-8 -4 -11 -10z"/>
<path d="M2886 2214 c-11 -28 -6 -39 9 -20 8 11 15 23 15 28 0 14 -18 9 -24
-8z"/>
<path d="M2625 2190 c-3 -5 -1 -10 4 -10 6 0 11 5 11 10 0 6 -2 10 -4 10 -3 0
-8 -4 -11 -10z"/>
<path d="M2840 2150 c0 -5 7 -10 15 -10 8 0 15 5 15 10 0 6 -7 10 -15 10 -8 0
-15 -4 -15 -10z"/>
<path d="M2615 2110 c-3 -5 1 -10 9 -10 9 0 16 5 16 10 0 6 -4 10 -9 10 -6 0
-13 -4 -16 -10z"/>
<path d="M2540 2086 c0 -8 -8 -20 -17 -25 -10 -6 -14 -11 -9 -11 5 0 3 -7 -4
-15 -7 -8 -9 -15 -5 -15 8 0 29 24 45 52 7 11 7 19 0 23 -5 3 -10 -1 -10 -9z"/>
<path d="M2811 2070 c-8 -25 -7 -30 5 -30 9 0 14 7 12 18 -1 9 1 23 5 30 5 6
4 12 -1 12 -6 0 -15 -13 -21 -30z"/>
<path d="M2776 2005 c-3 -9 0 -15 8 -15 8 0 16 7 20 15 3 9 0 15 -8 15 -8 0
-16 -7 -20 -15z"/>
<path d="M2750 1955 c-10 -12 -10 -15 4 -15 9 0 16 7 16 15 0 8 -2 15 -4 15
-2 0 -9 -7 -16 -15z"/>
<path d="M2736 1845 c4 -8 8 -15 10 -15 2 0 4 7 4 15 0 8 -4 15 -10 15 -5 0
-7 -7 -4 -15z"/>
<path d="M2386 1783 c-4 -13 -12 -23 -17 -23 -5 0 -9 -15 -9 -32 1 -28 2 -30
11 -15 6 9 14 15 20 12 5 -4 9 -2 9 4 0 5 -6 12 -12 14 -10 4 -10 8 0 15 8 5
12 18 10 28 -4 17 -5 17 -12 -3z"/>
<path d="M2391 1694 c0 -11 3 -14 6 -6 3 7 2 16 -1 19 -3 4 -6 -2 -5 -13z"/>
<path d="M2617 1596 c-3 -8 1 -20 9 -27 21 -17 29 -4 11 21 -12 17 -16 18 -20
6z"/>
<path d="M2660 1580 c0 -5 5 -10 11 -10 5 0 7 5 4 10 -3 6 -8 10 -11 10 -2 0
-4 -4 -4 -10z"/>
<path d="M2580 1554 c0 -8 5 -12 10 -9 6 3 10 10 10 16 0 5 -4 9 -10 9 -5 0
-10 -7 -10 -16z"/>
<path d="M2352 1538 c3 -7 22 -14 44 -15 l39 -3 -40 15 c-49 18 -48 18 -43 3z"/>
<path d="M2460 1536 c0 -2 7 -6 15 -10 8 -3 15 -1 15 4 0 6 -7 10 -15 10 -8 0
-15 -2 -15 -4z"/>
<path d="M2500 1530 c0 -5 5 -10 10 -10 6 0 10 5 10 10 0 6 -4 10 -10 10 -5 0
-10 -4 -10 -10z"/>
<path d="M3300 2440 c0 -5 5 -10 10 -10 6 0 10 5 10 10 0 6 -4 10 -10 10 -5 0
-10 -4 -10 -10z"/>
<path d="M3265 2420 c3 -5 10 -10 16 -10 5 0 9 5 9 10 0 6 -7 10 -16 10 -8 0
-12 -4 -9 -10z"/>
<path d="M3240 2404 c0 -11 -7 -30 -17 -43 -10 -15 -11 -22 -4 -20 7 3 20 17
29 32 13 21 14 29 4 39 -9 9 -12 8 -12 -8z"/>
<path d="M3120 2320 c-24 -19 -24 -20 -4 -20 11 0 29 9 39 20 24 27 -1 27 -35
0z"/>
<path d="M3075 2279 c-10 -15 3 -25 16 -12 7 7 7 13 1 17 -6 3 -14 1 -17 -5z"/>
<path d="M3103 2226 c-9 -11 -9 -18 2 -32 13 -18 14 -17 15 14 0 36 0 36 -17
18z"/>
<path d="M3033 2223 c-15 -6 -17 -43 -3 -43 6 0 10 7 10 15 0 8 9 15 20 15 11
0 20 4 20 8 0 9 -29 12 -47 5z"/>
<path d="M2960 2110 c0 -5 5 -10 10 -10 6 0 10 5 10 10 0 6 -4 10 -10 10 -5 0
-10 -4 -10 -10z"/>
<path d="M3220 2110 c0 -5 5 -10 10 -10 6 0 10 5 10 10 0 6 -4 10 -10 10 -5 0
-10 -4 -10 -10z"/>
<path d="M3260 2054 c0 -3 7 -12 15 -20 16 -17 18 -14 9 10 -6 15 -24 23 -24
10z"/>
<path d="M2934 2032 c4 -7 3 -12 -2 -12 -6 0 -12 -7 -15 -14 -4 -10 -1 -13 8
-10 18 7 27 32 13 40 -7 4 -8 3 -4 -4z"/>
<path d="M3070 2013 c0 -10 4 -14 8 -8 4 6 11 13 16 18 5 4 2 7 -7 7 -10 0
-17 -8 -17 -17z"/>
<path d="M3360 1970 c0 -5 5 -10 10 -10 6 0 10 5 10 10 0 6 -4 10 -10 10 -5 0
-10 -4 -10 -10z"/>
<path d="M2879 1958 c-3 -15 -11 -87 -10 -103 0 -10 -4 -24 -8 -30 -12 -14
-20 -59 -23 -118 -1 -27 -5 -50 -10 -53 -4 -3 -8 -11 -8 -17 0 -8 3 -8 8 -2 4
6 14 10 22 10 10 0 14 8 12 27 -3 23 0 27 15 22 14 -4 15 -3 4 4 -10 7 -12 30
-8 98 4 49 11 105 17 124 5 19 10 36 10 37 0 4 -20 4 -21 1z"/>
<path d="M2945 1950 c-3 -5 -1 -10 4 -10 6 0 11 5 11 10 0 6 -2 10 -4 10 -3 0
-8 -4 -11 -10z"/>
<path d="M3405 1950 c11 -5 27 -9 35 -9 13 -1 13 0 0 9 -8 5 -24 9 -35 9 l-20
0 20 -9z"/>
<path d="M3470 1949 c0 -5 5 -7 10 -4 6 3 10 8 10 11 0 2 -4 4 -10 4 -5 0 -10
-5 -10 -11z"/>
<path d="M3212 1915 c0 -16 2 -22 5 -12 2 9 2 23 0 30 -3 6 -5 -1 -5 -18z"/>
<path d="M3273 1900 c0 -25 2 -35 4 -22 2 12 2 32 0 45 -2 12 -4 2 -4 -23z"/>
<path d="M3537 1923 c6 -15 22 -16 43 -3 17 11 15 12 -21 14 -18 1 -25 -2 -22
-11z"/>
<path d="M3520 1889 c0 -5 5 -7 10 -4 6 3 10 8 10 11 0 2 -4 4 -10 4 -5 0 -10
-5 -10 -11z"/>
<path d="M3440 1840 c0 -13 5 -18 15 -14 8 4 15 12 15 20 0 8 -7 14 -15 14 -8
0 -15 -9 -15 -20z"/>
<path d="M3511 1784 c0 -11 3 -14 6 -6 3 7 2 16 -1 19 -3 4 -6 -2 -5 -13z"/>
<path d="M2920 1766 c0 -20 13 -27 30 -15 11 6 12 9 2 9 -7 0 -10 5 -7 10 3 6
-1 10 -9 10 -9 0 -16 -6 -16 -14z"/>
<path d="M3260 1770 c0 -5 5 -10 10 -10 6 0 10 5 10 10 0 6 -4 10 -10 10 -5 0
-10 -4 -10 -10z"/>
<path d="M3162 1744 c-12 -8 -28 -12 -35 -8 -9 5 -9 4 0 -6 14 -16 73 -4 73
16 0 18 -10 18 -38 -2z"/>
<path d="M3218 1743 c7 -3 16 -2 19 1 4 3 -2 6 -13 5 -11 0 -14 -3 -6 -6z"/>
<path d="M2905 1730 c3 -5 8 -10 11 -10 2 0 4 5 4 10 0 6 -5 10 -11 10 -5 0
-7 -4 -4 -10z"/>
<path d="M2946 1721 c-4 -5 -2 -12 3 -15 5 -4 12 -2 15 3 4 5 2 12 -3 15 -5 4
-12 2 -15 -3z"/>
<path d="M3045 1720 c-4 -6 5 -10 20 -10 15 0 24 4 20 10 -3 6 -12 10 -20 10
-8 0 -17 -4 -20 -10z"/>
<path d="M3010 1691 c0 -4 11 -6 25 -3 14 2 25 6 25 8 0 2 -11 4 -25 4 -14 0
-25 -4 -25 -9z"/>
<path d="M2891 1666 c-10 -11 -4 -12 35 -5 61 12 68 19 17 19 -22 0 -46 -6
-52 -14z"/>
<path d="M342 35 c2 -51 28 -42 36 13 2 16 -2 22 -17 22 -17 0 -20 -6 -19 -35z"/>
<path d="M760 45 c0 -3 10 -10 23 -15 17 -7 18 -9 5 -9 -10 -1 -18 -6 -18 -11
0 -6 11 -8 28 -4 37 9 39 12 16 29 -18 14 -54 20 -54 10z"/>
</g>
</svg>
